<?xml version="1.0" encoding="UTF-8"?>
<!-- Generated by Pixelmator Pro 2.4.3 -->
<svg width="30" height="25" viewBox="0 0 30 25" xmlns="http://www.w3.org/2000/svg" xmlns:xlink="http://www.w3.org/1999/xlink">
    <g id="Add-Line">
        <g id="Line">
            <path id="Path" fill="#eeeeee" fill-rule="evenodd" stroke="#d5d5d5" stroke-width="1.5" stroke-linecap="round" d="M 24.5 9.5 L 6.5 20"/>
            <path id="Teardrop-Marker" fill="#eeeeee" fill-rule="evenodd" stroke="#d5d5d5" stroke-width="1.5" stroke-linecap="round" d="M 8.75 21.125 L 8.125 22.859375 L 7.453125 23.421875 L 6.265625 23.71875 L 4.625 23.125 L 4.0625 22.453125 L 3.78125 21.25 L 4.0625 20.03125 L 4.625 19.359375 L 6.375 18.75 L 8.75 18.75 Z"/>
            <path id="Teardrop-Marker-copy" fill="#eeeeee" fill-rule="evenodd" stroke="#d5d5d5" stroke-width="1.5" stroke-linecap="round" d="M 28.359375 4.859375 L 28.921875 5.53125 L 29.21875 6.734375 L 28.625 8.359375 L 27.953125 8.921875 L 26.625 9.25 L 24.25 9.25 L 24.25 6.875 L 24.859375 5.125 L 25.53125 4.5625 L 26.71875 4.28125 Z"/>
        </g>
        <path id="Add" fill="#999999" fill-rule="evenodd" stroke="none" d="M 7 14 C 3.134011 14 0 10.86599 0 7 C 0 3.13401 3.134011 0 7 0 C 10.86599 0 14 3.13401 14 7 C 14 10.86599 10.86599 14 7 14 Z M 5.740234 13.5 L 8.259766 13.5 L 8.259766 8.259766 L 13.5 8.259766 L 13.5 5.740234 L 8.259766 5.740234 L 8.259766 0.5 L 5.740234 0.5 L 5.740234 5.740234 L 0.5 5.740234 L 0.5 8.259766 L 5.740234 8.259766 L 5.740234 13.5 Z"/>
    </g>
</svg>
