<?xml version="1.0" encoding="UTF-8"?>
<!-- Generated by Pixelmator Pro 2.4.3 -->
<svg width="30" height="25" viewBox="0 0 30 25" xmlns="http://www.w3.org/2000/svg" xmlns:xlink="http://www.w3.org/1999/xlink">
    <g id="Add-Rect">
        <path id="Rectangle" fill="#eeeeee" fill-rule="evenodd" stroke="#d5d5d5" stroke-width="1.5" stroke-linecap="round" d="M 29.25 23.75 L 9.75 23.75 L 9.75 11.75 L 29.25 11.75 Z"/>
        <path id="Add" fill="#999999" fill-rule="evenodd" stroke="none" d="M 7 14 C 3.134011 14 0 10.86599 0 7 C 0 3.13401 3.134011 0 7 0 C 10.86599 0 14 3.13401 14 7 C 14 10.86599 10.86599 14 7 14 Z M 5.740234 13.5 L 8.259766 13.5 L 8.259766 8.259766 L 13.5 8.259766 L 13.5 5.740234 L 8.259766 5.740234 L 8.259766 0.5 L 5.740234 0.5 L 5.740234 5.740234 L 0.5 5.740234 L 0.5 8.259766 L 5.740234 8.259766 L 5.740234 13.5 Z"/>
    </g>
</svg>
