<?xml version="1.0" encoding="UTF-8"?>
<!-- Generated by Pixelmator Pro 2.4.3 -->
<svg width="30" height="30" viewBox="0 0 30 30" xmlns="http://www.w3.org/2000/svg" xmlns:xlink="http://www.w3.org/1999/xlink">
    <g id="Exclude">
        <path id="Shape" fill="#d5d5d5" fill-rule="evenodd" stroke="none" d="M 14 30 C 11.238603 30 9 27.761396 9 25 L 9 21 L 5 21 C 2.238603 21 0 18.761398 0 16 L 0 5 C 0 2.238602 2.238603 0 5 0 L 16 0 C 18.761398 0 21 2.238602 21 5 L 21 9 L 25 9 C 27.761398 9 30 11.238602 30 14 L 30 25 C 30 27.761396 27.761398 30 25 30 L 14 30 Z"/>
        <path id="Shape-copy-2" fill="#444444" fill-rule="evenodd" stroke="none" d="M 9 21 L 9 14 C 9 11.238602 11.238603 9 14 9 L 21 9 L 21 16 C 21 18.761398 18.761398 21 16 21 L 9 21 Z"/>
    </g>
</svg>
