<?xml version="1.0" encoding="UTF-8"?>
<!-- Generated by Pixelmator Pro 2.4.3 -->
<svg width="30" height="30" viewBox="0 0 30 30" xmlns="http://www.w3.org/2000/svg" xmlns:xlink="http://www.w3.org/1999/xlink">
    <g id="Subtract">
        <path id="Shape" fill="#d5d5d5" fill-rule="evenodd" stroke="none" d="M 5 0 C 2.2386 0 0 2.2386 0 5 L 0 16 C 0 18.7614 2.2386 21 5 21 L 16 21 C 18.7614 21 21 18.7614 21 16 L 21 5 C 21 2.2386 18.7614 0 16 0 Z"/>
        <path id="path1" fill="#444444" fill-rule="evenodd" stroke="none" d="M 14 9 C 11.2386 9 9 11.2386 9 14 L 9 25 C 9 27.7614 11.2386 30 14 30 L 25 30 C 27.7614 30 30 27.7614 30 25 L 30 14 C 30 11.2386 27.7614 9 25 9 Z"/>
    </g>
</svg>
